#!OML:ASF F:\VICON\USERDATA\INSTALL\rory3\rory3.ASF
:FULLY-SPECIFIED
:DEGREES
314
root 1.82154 18.9862 3.91082 -170.14 -8.75941 178.141
lowerback 13.0455 0.264542 0.51126
upperback 1.64742 0.303381 1.12445
thorax -5.5843 0.0691664 0.847227
lowerneck -22.5069 -2.3179 -10.3036
upperneck 33.3204 -2.21186 2.99561
head 15.7324 -2.40854 2.45688
rclavicle -7.7526e-015 1.35174e-014
rhumerus 39.9391 9.50098 -69.4984
rradius 72.1821
rwrist 51.861
rhand -8.91678 0.356137
rfingers 7.12502
rthumb 17.0265 -28.9177
lclavicle -7.7526e-015 1.35174e-014
lhumerus 44.1936 -15.1969 68.3521
lradius 67.4872
lwrist -23.7774
lhand -22.4192 26.3837
lfingers 7.12502
lthumb 4.00395 56.3259
rfemur -7.13438 2.05172 22.2071
rtibia 18.0905
rfoot 0.975479 -7.27843
rtoes 6.20991
lfemur -68.2761 -4.23688 -27.6171
ltibia 80.5693
lfoot -23.1294 -3.16685
ltoes -3.73724
315
root 1.78991 19.0637 3.84303 -169.908 -8.37867 178.137
lowerback 12.727 0.222895 0.359916
upperback 1.70311 0.224327 1.14827
thorax -5.34908 0.0336944 0.97066
lowerneck -22.6261 -2.14726 -10.188
upperneck 33.4471 -1.91233 2.73456
head 15.7902 -2.31923 2.3829
rclavicle -2.26615e-014 -1.19271e-014
rhumerus 39.8655 9.99453 -69.9011
rradius 72.4495
rwrist 51.969
rhand -9.00764 0.372986
rfingers 7.12502
rthumb 16.9391 -28.9083
lclavicle -2.26615e-014 -1.19271e-014
lhumerus 44.4809 -14.8532 68.2358
lradius 66.5698
lwrist -23.861
lhand -22.3336 26.7308
lfingers 7.12502
lthumb 4.0866 56.6714
rfemur -7.1362 2.48453 21.9803
rtibia 17.6159
rfoot 2.43737 -8.02693
rtoes 6.84979
lfemur -67.7421 -3.9281 -27.7632
ltibia 79.9285
lfoot -23.2071 -2.83811
ltoes -4.75244
316
root 1.75922 19.1468 3.78071 -169.795 -8.04327 178.207
lowerback 12.6685 0.168332 0.298709
upperback 1.77879 0.138059 1.19589
thorax -5.23612 -0.0101559 1.06961
lowerneck -22.8274 -2.02481 -10.0775
upperneck 33.4535 -1.64674 2.49256
head 15.8142 -2.22811 2.31187
rclavicle 2.18663e-014 -3.18055e-015
rhumerus 36.4418 10.3214 -70.955
rradius 74.4805
rwrist 52.7099
rhand -10.3865 1.01355
rfingers 7.12502
rthumb 15.6115 -28.3765
lclavicle 2.18663e-014 -3.18055e-015
lhumerus 44.8262 -14.5393 68.0186
lradius 65.7342
lwrist -23.2926
lhand -22.7415 27.4618
lfingers 7.12502
lthumb 3.69272 57.4096
rfemur -7.06221 3.01167 21.8265
rtibia 17.1538
rfoot 3.88805 -9.01677
rtoes 8.1405
lfemur -67.0887 -3.62789 -27.8466
ltibia 79.202
lfoot -23.4661 -2.55035
ltoes -4.54367
317
root 1.72793 19.2345 3.71859 -169.761 -7.59417 178.212
lowerback 12.7549 0.133216 0.117281
upperback 1.77691 0.0666234 1.22002
thorax -5.2852 -0.0423297 1.21012
lowerneck -22.8316 -1.89613 -10.0813
upperneck 33.5255 -1.44081 2.39896
head 15.8319 -2.16852 2.31164
rclavicle -3.18055e-015 1.66979e-014
rhumerus 38.2862 11.0725 -70.7231
rradius 73.3308
rwrist 52.5208
rhand -9.75069 0.626263
rfingers 7.12502
rthumb 16.2237 -28.7149
lclavicle -3.18055e-015 1.66979e-014
lhumerus 44.8128 -14.2665 67.954
lradius 65.1229
lwrist -22.4308
lhand -21.59 27.381
lfingers 7.12502
lthumb 4.80468 57.3066
rfemur -6.9655 3.45404 21.5722
rtibia 16.7346
rfoot 5.51109 -10.0257
rtoes 8.75482
lfemur -66.2837 -3.23021 -28.0327
ltibia 78.4099
lfoot -23.6009 -1.98278
ltoes -5.90505
318
root 1.69353 19.3283 3.64914 -169.608 -7.07648 178.227
lowerback 12.5947 0.112888 -0.0620527
upperback 1.77462 0.0170464 1.23271
thorax -5.19823 -0.0624109 1.33224
lowerneck -22.8678 -1.79901 -10.1503
upperneck 33.6823 -1.2994 2.39539
head 15.9049 -2.13784 2.34872
rclavicle -3.37934e-015 2.38542e-015
rhumerus 37.4382 11.675 -71.0968
rradius 74.0625
rwrist 52.755
rhand -9.7612 0.786067
rfingers 7.12502
rthumb 16.2136 -28.5559
lclavicle -3.37934e-015 2.38542e-015
lhumerus 44.4886 -14.0181 68.0364
lradius 64.7873
lwrist -21.8722
lhand -19.0346 26.8285
lfingers 7.12502
lthumb 7.27175 56.6836
rfemur -7.05457 3.82737 21.2953
rtibia 16.3267
rfoot 7.56492 -11.0266
rtoes 8.98959
lfemur -65.5457 -2.81619 -28.1942
ltibia 77.5525
lfoot -23.8265 -1.60672
ltoes -6.16684
319
root 1.66059 19.4225 3.57789 -169.415 -6.69887 178.29
lowerback 12.3395 0.0581006 -0.167622
upperback 1.78865 -0.0675145 1.26572
thorax -5.04017 -0.101582 1.4387
lowerneck -22.9964 -1.71766 -10.1585
upperneck 33.9179 -1.17698 2.32433
head 16.0394 -2.12195 2.3425
rclavicle -1.19271e-014 -7.95139e-015
rhumerus 36.6391 12.2953 -71.3615
rradius 74.5805
rwrist 52.6014
rhand -9.95271 0.823072
rfingers 7.12502
rthumb 16.0292 -28.5338
lclavicle -1.19271e-014 -7.95139e-015
lhumerus 44.0663 -13.825 68.0558
lradius 64.605
lwrist -21.7776
lhand -17.3298 26.8621
lfingers 7.12502
lthumb 8.91709 56.6537
rfemur -7.20104 4.07149 21.0982
rtibia 15.8925
rfoot 9.93938 -12.1609
rtoes 9.28369
lfemur -64.8278 -2.58148 -28.2262
ltibia 76.6481
lfoot -23.9571 -1.3882
ltoes -5.49192
320
root 1.628 19.5126 3.50904 -169.33 -6.3937 178.411
lowerback 12.2165 0.000438011 -0.185321
upperback 1.82308 -0.147109 1.31836
thorax -4.9337 -0.141764 1.51572
lowerneck -23.098 -1.62023 -10.1772
upperneck 34.0483 -1.02493 2.3018
head 16.1141 -2.07823 2.36581
rclavicle 6.36111e-015 1.35174e-014
rhumerus 35.7871 12.8766 -71.5797
rradius 74.8948
rwrist 52.3246
rhand -10.2142 0.73548
rfingers 7.12502
rthumb 15.7773 -28.6415
lclavicle 6.36111e-015 1.35174e-014
lhumerus 43.6428 -13.7041 68.0819
lradius 64.4764
lwrist -22.1178
lhand -16.2376 26.9719
lfingers 7.12502
lthumb 9.97095 56.7157
rfemur -7.27711 4.22972 20.9859
rtibia 15.4268
rfoot 12.3514 -13.596
rtoes 9.30896
lfemur -63.9802 -2.39161 -28.1843
ltibia 75.6958
lfoot -24.1804 -0.981945
ltoes -5.81606
321
root 1.59692 19.606 3.43844 -169.313 -5.98271 178.505
lowerback 12.1958 -0.0270225 -0.333445
upperback 1.82139 -0.20111 1.37608
thorax -4.922 -0.165855 1.66859
lowerneck -22.9941 -1.4891 -10.1748
upperneck 34.0561 -0.853996 2.27514
head 16.078 -2.02002 2.38626
rclavicle 4.96962e-015 9.93923e-015
rhumerus 34.8621 13.4762 -71.8581
rradius 75.2342
rwrist 52.3993
rhand -10.4476 0.6827
rfingers 7.12502
rthumb 15.5526 -28.7119
lclavicle 4.96962e-015 9.93923e-015
lhumerus 42.9946 -13.5935 68.238
lradius 64.3458
lwrist -22.4216
lhand -15.607 26.8078
lfingers 7.12502
lthumb 10.5793 56.5215
rfemur -7.34288 4.50307 20.8114
rtibia 15.0098
rfoot 14.602 -15.3568
rtoes 9.55538
lfemur -63.0035 -2.12868 -28.1534
ltibia 74.6882
lfoot -24.4125 -0.601576
ltoes -5.96415
322
root 1.56813 19.7069 3.36643 -169.302 -5.48613 178.611
lowerback 12.1828 -0.0193336 -0.556392
upperback 1.8264 -0.218276 1.44739
thorax -4.90815 -0.170791 1.87212
lowerneck -22.9208 -1.36987 -10.1708
upperneck 34.0723 -0.687889 2.22297
head 16.054 -1.9675 2.39418
rclavicle 1.19271e-015 -7.55382e-015
rhumerus 33.9782 14.0835 -72.1547
rradius 75.697
rwrist 52.5844
rhand -10.5178 0.729862
rfingers 7.12502
rthumb 15.4849 -28.67
lclavicle 1.19271e-015 -7.55382e-015
lhumerus 42.2859 -13.4942 68.3684
lradius 64.2818
lwrist -22.505
lhand -15.6481 26.9306
lfingers 7.12502
lthumb 10.5396 56.6464
rfemur -7.49694 4.86112 20.6162
rtibia 14.7317
rfoot 16.6739 -17.3404
rtoes 11.177
lfemur -62.0099 -1.78636 -28.0918
ltibia 73.6565
lfoot -24.6512 -0.292351
ltoes -6.24761
323
root 1.53874 19.8063 3.29566 -169.258 -5.02423 178.871
lowerback 12.0163 -0.026578 -0.596479
upperback 1.89717 -0.234777 1.55996
thorax -4.74059 -0.181908 2.01323
lowerneck -23.0076 -1.30678 -10.2488
upperneck 34.1122 -0.578656 2.28051
head 16.0847 -1.92913 2.4543
rclavicle 5.76476e-015 -7.15625e-015
rhumerus 33.3232 14.6986 -72.2829
rradius 76.1627
rwrist 52.3984
rhand -10.1653 0.840743
rfingers 7.12502
rthumb 15.8244 -28.5325
lclavicle 5.76476e-015 -7.15625e-015
lhumerus 41.637 -13.3929 68.4415
lradius 64.3605
lwrist -22.5952
lhand -15.6722 27.1338
lfingers 7.12502
lthumb 10.5164 56.8508
rfemur -7.7897 5.22284 20.5765
rtibia 14.6968
rfoot 18.2598 -19.4001
rtoes 14.365
lfemur -61.1059 -1.4402 -27.8703
ltibia 72.6222
lfoot -24.8038 -0.0980487
ltoes -6.12669
